HIERARCHY
ROOT hip
{
	OFFSET 0.000000 0.000000 0.000000
	CHANNELS 6 Xposition Yposition Zposition Xrotation Zrotation Yrotation 
	JOINT abdomen
	{
		OFFSET 0.000000 3.422050 0.000000
		CHANNELS 3 Xrotation Zrotation Yrotation 
		JOINT chest
		{
			OFFSET 0.000000 8.486693 -0.684411
			CHANNELS 3 Xrotation Zrotation Yrotation 
			JOINT neck
			{
				OFFSET 0.000000 10.266162 -0.273764
				CHANNELS 3 Xrotation Zrotation Yrotation 
				JOINT head
				{
					OFFSET 0.000000 3.148285 0.000000
					CHANNELS 3 Xrotation Zrotation Yrotation 
					End Site
					{
						OFFSET 0.000000 3.148289 0.000000
					}
				}
			}
			JOINT lCollar
			{
				OFFSET 3.422053 6.707223 -0.821293
				CHANNELS 3 Yrotation Zrotation Xrotation 
				JOINT lShldr
				{
					OFFSET 3.285171 0.000000 0.000000
					CHANNELS 3 Zrotation Yrotation Xrotation 
					JOINT lForeArm
					{
						OFFSET 10.129278 0.000000 0.000000
						CHANNELS 3 Yrotation Zrotation Xrotation 
						JOINT lHand
						{
							OFFSET 8.486692 0.000000 0.000000
							CHANNELS 3 Zrotation Yrotation Xrotation 
							End Site
							{
								OFFSET 4.106464 0.000000 0.000000
							}
						}
					}
				}
			}
			JOINT rCollar
			{
				OFFSET -3.558935 6.707223 -0.821293
				CHANNELS 3 Yrotation Zrotation Xrotation 
				JOINT rShldr
				{
					OFFSET -3.148289 0.000000 0.000000
					CHANNELS 3 Zrotation Yrotation Xrotation 
					JOINT rForeArm
					{
						OFFSET -10.266159 0.000000 0.000000
						CHANNELS 3 Yrotation Zrotation Xrotation 
						JOINT rHand
						{
							OFFSET -8.349810 0.000000 0.000000
							CHANNELS 3 Zrotation Yrotation Xrotation 
							End Site
							{
								OFFSET -4.106464 0.000000 0.000000
							}
						}
					}
				}
			}
		}
	}
	JOINT lThigh
	{
		OFFSET 5.338403 -1.642589 1.368821
		CHANNELS 3 Xrotation Zrotation Yrotation 
		JOINT lShin
		{
			OFFSET -2.053232 -20.121670 0.000000
			CHANNELS 3 Xrotation Zrotation Yrotation 
			JOINT lFoot
			{
				OFFSET 0.000000 -19.300380 -1.231939
				CHANNELS 3 Xrotation Yrotation Zrotation 
				End Site
				{
					OFFSET 0.000000 -2.463878 4.653993
				}
			}
		}
	}
	JOINT rThigh
	{
		OFFSET -5.338403 -1.642589 1.368821
		CHANNELS 3 Xrotation Zrotation Yrotation 
		JOINT rShin
		{
			OFFSET 2.053232 -20.121670 0.000000
			CHANNELS 3 Xrotation Zrotation Yrotation 
			JOINT rFoot
			{
				OFFSET 0.000000 -19.300380 -1.231939
				CHANNELS 3 Xrotation Yrotation Zrotation 
				End Site
				{
					OFFSET 0.000000 -2.463878 4.653993
				}
			}
		}
	}
}
MOTION
Frames: 20
Frame Time: 0.033264
0.000000 43.528500 0.000000 0.000000 0.000000 0.000000 0.000000 0.000000 0.000000 0.000000 0.000000 0.000000 0.000000 0.000000 0.000000 0.000000 0.000000 0.000000 0.000000 0.000000 0.000000 0.000000 0.000000 0.000000 0.000000 0.000000 0.000000 0.000000 0.000000 0.000000 0.000000 0.000000 0.000000 0.000000 0.000000 0.000000 0.000000 0.000000 0.000000 0.000000 0.000000 0.000000 0.000000 0.000000 0.000000 0.000000 0.000000 0.000000 0.000000 0.000000 0.000000 0.000000 0.000000 0.000000 0.000000 0.000000 0.000000 0.000000 0.000000 0.000000 
19.995884 20.420734 12.708813 128.996719 0.003765 -179.992111 -14.102691 0.000000 0.000000 7.009274 -0.812206 0.761383 15.993459 0.000000 0.000000 10.996041 0.000000 0.000000 17.991001 6.306259 -0.522359 7.953804 16.949211 61.243412 -45.355446 -27.162807 51.007492 0.347654 8.281286 -1.470300 -18.009243 -6.326934 -0.526662 -7.955146 -16.952494 61.240093 45.353050 27.133331 51.016972 -0.361835 -8.274455 -1.469286 46.768192 36.003700 52.379265 57.175457 44.317352 -15.792047 11.902961 -19.217962 -21.589710 46.865433 -35.500355 -52.207901 56.423790 -44.276096 16.319736 12.256663 18.674456 21.836573 
19.995884 20.420734 12.708813 128.994614 0.003765 -179.992111 -13.547839 0.000000 0.000000 6.122830 -0.812184 0.761318 15.993459 0.000000 0.000000 12.266482 0.000000 0.000000 18.282516 6.399261 -0.481257 7.953015 16.936165 61.242378 -45.355450 -27.162809 51.007500 0.363836 8.118490 -1.213814 -18.284716 -6.409647 -0.488779 -7.955146 -16.952494 61.240093 45.353050 27.133333 51.016979 -0.373661 -8.121102 -1.206679 46.843933 36.391670 53.027874 57.175457 44.317352 -15.792047 11.993484 -19.712509 -21.014927 46.967422 -36.049736 -53.061882 56.423790 -44.276100 16.319740 12.368189 19.356302 21.033169 
19.995884 20.420734 12.708813 128.994614 0.003765 -179.992111 -12.992784 0.000000 0.000000 5.235532 -0.812164 0.761253 15.993459 0.000000 0.000000 13.539444 0.000000 0.000000 18.574045 6.492479 -0.440620 7.952223 16.923117 61.241341 -45.355446 -27.162807 51.007492 0.379277 7.955605 -0.957450 -18.560198 -6.492546 -0.451286 -7.955147 -16.952496 61.240093 45.353054 27.133333 51.016972 -0.384774 -7.967678 -0.944174 46.925606 36.779171 53.680828 57.175457 44.317356 -15.792049 12.089639 -20.206501 -20.437122 47.080441 -36.598427 -53.924095 56.423801 -44.276100 16.319738 12.490523 20.037489 20.223871 
19.995884 20.420734 12.708813 128.994614 0.003765 -179.992111 -12.437540 0.000000 0.000000 4.347486 -0.812144 0.761188 15.993459 0.000000 0.000000 14.814631 0.000000 0.000000 18.865595 6.585912 -0.400448 7.951432 16.910070 61.240303 -45.355453 -27.162813 51.007500 0.393977 7.792636 -0.701205 -18.835699 -6.575632 -0.414185 -7.955147 -16.952494 61.240097 45.353054 27.133335 51.016979 -0.395175 -7.814191 -0.681771 47.013283 37.166111 54.338165 57.175465 44.317356 -15.792047 12.191484 -20.699841 -19.856226 47.204762 -37.146248 -54.794769 56.423798 -44.276100 16.319740 12.623831 20.717751 19.408504 
19.995884 20.420734 12.708813 128.994614 0.003765 -179.992111 -11.882143 0.000000 0.000000 3.458800 -0.812126 0.761122 15.993457 0.000000 0.000000 16.091724 0.000000 0.000000 19.157164 6.679556 -0.360745 7.950641 16.897022 61.239265 -45.355446 -27.162806 51.007488 0.407937 7.629590 -0.445080 -19.111214 -6.658900 -0.377477 -7.955146 -16.952494 61.240093 45.353046 27.133329 51.016964 -0.404863 -7.660646 -0.419469 47.107040 37.552402 54.999947 57.175457 44.317352 -15.792047 12.299087 -21.192440 -19.272190 47.340611 -37.692955 -55.674080 56.423790 -44.276096 16.319736 12.768276 21.396820 18.586901 
19.995884 20.420734 12.708813 128.994598 0.003765 -179.992111 -11.326614 0.000000 0.000000 2.569576 -0.812109 0.761056 15.993457 0.000000 0.000000 17.370409 0.000000 0.000000 19.448740 6.773405 -0.321512 7.949853 16.883978 61.238228 -45.355446 -27.162807 51.007492 0.421158 7.466475 -0.189073 -19.386740 -6.742349 -0.341164 -7.955146 -16.952494 61.240093 45.353050 27.133331 51.016972 -0.413839 -7.507050 -0.157269 47.206989 37.937969 55.666260 57.175457 44.317352 -15.792047 12.412495 -21.684187 -18.684933 47.488258 -38.238327 -56.562252 56.423790 -44.276093 16.319738 12.924030 22.074436 17.758890 
19.995884 20.420734 12.708813 128.994614 0.003765 -179.992111 -10.770981 0.000000 0.000000 1.679924 -0.812092 0.760990 15.993459 0.000000 0.000000 18.650370 0.000000 0.000000 19.740335 6.867459 -0.282750 7.949063 16.870934 61.237202 -45.355446 -27.162807 51.007492 0.433639 7.303292 0.066815 -19.662277 -6.825975 -0.305248 -7.955146 -16.952494 61.240093 45.353050 27.133331 51.016972 -0.422103 -7.353404 0.104829 47.313221 38.322704 56.337181 57.175457 44.317352 -15.792047 12.531772 -22.174994 -18.094395 47.647945 -38.782127 -57.459480 56.423790 -44.276096 16.319736 13.091262 22.750326 16.924294 
19.995884 20.420734 12.708813 128.994614 0.003765 -179.992111 -10.215269 0.000000 0.000000 0.789950 -0.812077 0.760923 15.993459 0.000000 0.000000 19.931297 0.000000 0.000000 20.031927 6.961710 -0.244461 7.948274 16.857883 61.236164 -45.355450 -27.162809 51.007496 0.445382 7.140048 0.322586 -19.937819 -6.909775 -0.269730 -7.955147 -16.952497 61.240093 45.353050 27.133331 51.016972 -0.429657 -7.199715 0.366827 47.425789 38.706509 57.012745 57.175461 44.317356 -15.792048 12.656980 -22.664751 -17.500521 47.819939 -39.324142 -58.365990 56.423794 -44.276100 16.319738 13.270135 23.424208 16.082937 
19.995884 20.420734 12.708813 128.994614 0.003765 -179.992111 -9.659504 0.000000 0.000000 -0.100239 -0.812063 0.760856 15.993459 0.000000 0.000000 21.212858 0.000000 0.000000 20.323528 7.056157 -0.206648 7.947486 16.844841 61.235138 -45.355450 -27.162811 51.007492 0.456387 6.976750 0.578239 -20.213366 -6.993744 -0.234611 -7.955147 -16.952494 61.240097 45.353050 27.133331 51.016972 -0.436500 -7.045990 0.628724 47.544823 39.089325 57.693066 57.175465 44.317352 -15.792045 12.788174 -23.153357 -16.903227 48.004475 -39.864109 -59.281979 56.423794 -44.276100 16.319735 13.460821 24.095818 15.234638 
19.995884 20.420734 12.708813 128.994614 0.003765 -179.992111 -9.103717 0.000000 0.000000 -0.990536 -0.812049 0.760789 15.993459 0.000000 0.000000 22.494745 0.000000 0.000000 20.615129 7.150794 -0.169311 7.946697 16.831793 61.234100 -45.355453 -27.162811 51.007496 0.466654 6.813402 0.833777 -20.488911 -7.077882 -0.199892 -7.955147 -16.952496 61.240097 45.353050 27.133333 51.016979 -0.442633 -6.892232 0.890520 47.670391 39.471024 58.378166 57.175465 44.317352 -15.792045 12.925420 -23.640718 -16.302464 48.201836 -40.401810 -60.207687 56.423790 -44.276100 16.319740 13.663482 24.764862 14.379224 
19.995884 20.420734 12.708813 128.994614 0.003765 -179.992111 -8.547925 0.000000 0.000000 -1.880834 -0.812037 0.760722 15.993459 0.000000 0.000000 23.776634 0.000000 0.000000 20.906727 7.245618 -0.132452 7.945909 16.818747 61.233063 -45.355446 -27.162807 51.007492 0.476185 6.650011 1.089200 -20.764460 -7.162185 -0.165575 -7.955146 -16.952494 61.240093 45.353046 27.133331 51.016972 -0.448056 -6.738450 1.152215 47.802593 39.851540 59.068161 57.175453 44.317345 -15.792045 13.068776 -24.126726 -15.698155 48.412235 -40.936970 -61.143295 56.423790 -44.276096 16.319736 13.878291 25.431072 13.516511 
19.995884 20.420734 12.708813 128.994614 0.003765 -179.992111 -7.992162 0.000000 0.000000 -2.771022 -0.812026 0.760654 15.993459 0.000000 0.000000 25.058199 0.000000 0.000000 21.198328 7.340628 -0.096073 7.945118 16.805696 61.232025 -45.355446 -27.162807 51.007492 0.484979 6.486582 1.344507 -21.040005 -7.246650 -0.131662 -7.955146 -16.952494 61.240093 45.353046 27.133331 51.016972 -0.452771 -6.584647 1.413810 47.941509 40.230759 59.763092 57.175453 44.317348 -15.792043 13.218296 -24.611277 -15.090241 48.635986 -41.469379 -62.089062 56.423790 -44.276096 16.319736 14.105414 26.094152 12.646324 
19.995884 20.420734 12.708813 128.994614 0.003765 -179.992111 -7.436451 0.000000 0.000000 -3.660997 -0.812016 0.760587 15.993457 0.000000 0.000000 26.339123 0.000000 0.000000 21.489916 7.435815 -0.060175 7.944332 16.792650 61.230995 -45.355446 -27.162807 51.007492 0.493036 6.323118 1.599700 -21.315540 -7.331271 -0.098152 -7.955146 -16.952494 61.240093 45.353046 27.133331 51.016972 -0.456777 -6.430828 1.675305 48.087246 40.608601 60.463055 57.175457 44.317352 -15.792047 13.374046 -25.094278 -14.478656 48.873295 -41.998753 -63.045174 56.423786 -44.276093 16.319733 14.345016 26.753822 11.768484 
19.995884 20.420734 12.708813 128.994614 0.003765 -179.992111 -6.880817 0.000000 0.000000 -4.550649 -0.812007 0.760519 15.993459 0.000000 0.000000 27.619085 0.000000 0.000000 21.781496 7.531179 -0.024761 7.943545 16.779604 61.229961 -45.355446 -27.162807 51.007492 0.500359 6.159628 1.854780 -21.591074 -7.416050 -0.065049 -7.955147 -16.952494 61.240097 45.353054 27.133331 51.016975 -0.460076 -6.276997 1.936700 48.239853 40.984955 61.168079 57.175465 44.317352 -15.792045 13.536086 -25.575611 -13.863328 49.124458 -42.524864 -64.011894 56.423790 -44.276096 16.319736 14.597255 27.409784 10.882811 
19.995884 20.420734 12.708813 128.994614 0.003765 -179.992111 -6.325288 0.000000 0.000000 -5.439872 -0.811999 0.760451 15.993459 0.000000 0.000000 28.897776 0.000000 0.000000 22.073059 7.626714 0.010170 7.942757 16.766554 61.228924 -45.355446 -27.162807 51.007492 0.506948 5.996117 2.109747 -21.866592 -7.500982 -0.032352 -7.955147 -16.952494 61.240097 45.353058 27.133335 51.016979 -0.462668 -6.123164 2.197995 48.399467 41.359741 61.878292 57.175465 44.317352 -15.792045 13.704469 -26.055183 -13.244199 49.389706 -43.047447 -64.989403 56.423798 -44.276096 16.319735 14.862292 28.061749 9.989128 
19.995884 20.420734 12.708813 128.994614 0.003765 -179.992111 -5.769891 0.000000 0.000000 -6.328559 -0.811992 0.760383 15.993460 0.000000 0.000000 30.174860 0.000000 0.000000 22.364620 7.722419 0.044615 7.941971 16.753510 61.227894 -45.355450 -27.162809 51.007496 0.512802 5.832591 2.364603 -22.142099 -7.586061 -0.000064 -7.955146 -16.952496 61.240093 45.353058 27.133333 51.016975 -0.464554 -5.969331 2.459191 48.566154 41.732857 62.593731 57.175457 44.317352 -15.792047 13.879251 -26.532869 -12.621191 49.669292 -43.566227 -65.977943 56.423798 -44.276096 16.319735 15.140291 28.709440 9.087267 
19.995884 20.420734 12.708813 128.994614 0.003765 -179.992111 -5.214650 0.000000 0.000000 -7.216606 -0.811986 0.760315 15.993459 0.000000 0.000000 31.450043 0.000000 0.000000 22.656149 7.818285 0.078572 7.941185 16.740463 61.226860 -45.355438 -27.162806 51.007488 0.517923 5.669052 2.619346 -22.417587 -7.671287 0.031816 -7.955146 -16.952494 61.240086 45.353050 27.133331 51.016972 -0.465734 -5.815505 2.720288 48.739990 42.104202 63.314476 57.175449 44.317345 -15.792048 14.060504 -27.008593 -11.994251 49.963474 -44.080967 -66.977722 56.423786 -44.276093 16.319733 15.431404 29.352547 8.177046 
19.995884 20.420734 12.708813 128.994614 0.003765 -179.992111 -4.659590 0.000000 0.000000 -8.103903 -0.811981 0.760247 15.993459 0.000000 0.000000 32.723003 0.000000 0.000000 22.947664 7.914313 0.112041 7.940398 16.727417 61.225830 -45.355442 -27.162804 51.007488 0.522313 5.505508 2.873980 -22.693064 -7.756658 0.063285 -7.955144 -16.952494 61.240086 45.353046 27.133327 51.016968 -0.466209 -5.661687 2.981285 48.921062 42.473675 64.040573 57.175449 44.317352 -15.792047 14.248269 -27.482231 -11.363311 50.272469 -44.591373 -67.988930 56.423782 -44.276093 16.319735 15.735776 29.990774 7.258303 
19.995884 20.420734 12.708813 128.994614 0.003765 -179.992111 -4.104741 0.000000 0.000000 -8.990346 -0.811977 0.760179 15.993459 0.000000 0.000000 33.993450 0.000000 0.000000 23.239155 8.010495 0.145020 7.939613 16.714369 61.224800 -45.355446 -27.162807 51.007492 0.525970 5.341966 3.128503 -22.968515 -7.842166 0.094342 -7.955146 -16.952494 61.240093 45.353050 27.133331 51.016972 -0.465980 -5.507888 3.242183 49.109474 42.841194 64.772133 57.175453 44.317348 -15.792043 14.442613 -27.953672 -10.728299 50.596535 -45.097195 -69.011826 56.423790 -44.276096 16.319736 16.053560 30.623833 6.330870 
